<svg width="97" height="20" viewBox="0 0 97 20" fill="none" xmlns="http://www.w3.org/2000/svg">
<path d="M24.2741 12.0195C23.0785 12.0195 20.3705 12.0195 16.1499 12.0195C11.9293 12.0195 9.13071 12.0195 7.75405 12.0195V14.9268L24.2741 14.9268V19.3828H2.23832C2.23832 18.0243 2.23832 16.0861 2.23832 13.5682C2.23832 11.0504 2.23832 9.1031 2.23832 7.72643H18.7583V4.76478L2.02095 4.76478L0.0918087 0.363073L22.1275 0.363073L24.2741 5.25386V12.0195ZM47.7394 5.11801C47.7394 5.17235 47.7394 5.96937 47.7394 7.50906C47.7394 9.04876 47.7394 10.6337 47.7394 12.264C47.7394 13.8761 47.7394 15.4249 47.7394 16.9102C47.7394 18.3775 47.7394 19.2017 47.7394 19.3828H26.3286V0.363073L45.6473 0.363073L47.7394 5.11801ZM42.2509 14.6279V5.11801L31.8172 5.11801V14.6279H42.2509ZM72.1949 12.0195C70.9994 12.0195 68.2913 12.0195 64.0707 12.0195C59.8502 12.0195 57.0515 12.0195 55.6749 12.0195V14.9268L72.1949 14.9268V19.3828H50.1592C50.1592 18.0243 50.1592 16.0861 50.1592 13.5682C50.1592 11.0504 50.1592 9.1031 50.1592 7.72643H66.6792V4.76478L49.9418 4.76478L48.0126 0.363073L70.0484 0.363073L72.1949 5.25386V12.0195ZM96.2309 7.72643C96.249 13.9214 96.249 17.8069 96.2309 19.3828H74.1951V14.9268H90.7151V12.0195H74.1951V0.363073L94.2745 0.363073L96.2037 4.76478L79.7109 4.76478V7.72643H96.2309Z" fill="#EBEBEB"/>
</svg>
