
<svg width="40" height="104" viewBox="0 0 40 104" fill="none" xmlns="http://www.w3.org/2000/svg">
  <path d="M16.6889 58.043C19.8046 58.043 24.007 58.043 29.2964 58.043C34.5495 58.043 38.1179 58.043 40.0018 58.043V102.114H1.96223V62.336L10.7657 58.4776V91.083H16.6889V58.043ZM31.0896 69.0744H25.275V91.083H31.0896V69.0744ZM40.0018 46.376V55.0706H32.4483V46.376H40.0018ZM11.4721 0.280668C11.5808 0.280668 13.1748 0.280668 16.2542 0.280668C19.3336 0.280668 22.5036 0.280668 25.764 0.280668C28.9884 0.280668 32.0858 0.280668 35.0566 0.280668C37.9909 0.280668 39.6395 0.280668 40.0018 0.280668V43.1022H1.96223V4.46502L11.4721 0.280668ZM30.4918 11.2578H11.4721V32.1252H30.4918V11.2578Z" fill="#EBEBEB"/>
</svg>
