<svg width="639" height="56" viewBox="0 0 639 56" fill="none" xmlns="http://www.w3.org/2000/svg">
<path d="M56.84 4L62.37 16.6C62.37 55.8 62.44 53 62.23 53H48.23V40.75C42.7 40.75 31.85 40.75 24.36 40.75V28.5C31.99 28.5 45.22 28.5 48.23 28.5V16.25C36.54 16.25 29.47 16.25 19.67 16.25V53C19.67 53 10.43 53 5.39 53C5.39 44.39 5.39 22.97 5.39 16.25L0.07 4C19.53 4 37.31 4 56.84 4ZM108.553 18.56L112.613 27.73V53L67.323 53.07L67.393 9.67L63.403 0.499996H80.903V41.94H99.103V29.69H85.523V18.56H108.553ZM161.952 27.73V43.83L157.892 53H120.722L116.732 43.83V27.73L120.722 18.56H157.892L161.952 27.73ZM148.442 41.94V29.69H130.172V41.94H148.442ZM209.497 18.56C209.497 54.68 209.497 53 209.427 53C209.427 53.07 210.897 53 170.017 53L166.027 43.83V18.56H179.467V40.75H195.987V18.56H209.497ZM229.759 29.69V40.75H250.759V53H216.249L216.319 27.38L212.469 18.56H216.319V0.499996H229.759V18.56H248.169V29.69H229.759ZM286.154 4.07C289.444 4.07 305.474 4.07 305.474 4.07V53.07C298.194 53.07 298.334 53.07 291.334 53.07V16.04L286.154 4.07ZM355.759 0.499996V53.07C338.749 53.07 344.559 53.07 310.539 53.07V27.8L314.529 18.56H337.559V29.69H323.979V41.94H342.249V0.499996H355.759ZM373.668 28.22V43.41H401.458V53H364.218L360.228 43.83V27.73L364.218 18.56H401.388L405.448 27.73V39.35H378.358V32.49H391.938V28.22H373.668ZM450.485 18.56L454.475 27.73V53.07H440.965V29.69H422.835V41.94H436.345V53.07H409.395V18.56H450.485ZM473.255 29.69V40.75H494.255V53H459.745L459.815 27.38L455.965 18.56H459.815V0.499996H473.255V18.56H491.665V29.69H473.255ZM537.674 18.56L541.664 27.73V53.07H528.154V30.81H511.634V53H498.194V9.67L494.204 0.499996H511.634V18.56H537.674ZM590.976 27.73V43.83L586.916 53H549.746L545.756 43.83V27.73L549.746 18.56H586.916L590.976 27.73ZM577.466 41.94V29.69H559.196V41.94H577.466ZM634.881 18.56L638.871 27.73V53.07H625.361V30.81H608.841V53.07H595.401V18.56H634.881Z" fill="#00E0FF"/>
</svg>
