<svg width="216" height="216" viewBox="0 0 216 216" fill="none" xmlns="http://www.w3.org/2000/svg">
<path d="M136.936 208.662H129.774C129.774 211.375 131.307 213.855 133.733 215.068C136.16 216.281 139.063 216.019 141.233 214.392L136.936 208.662ZM165.584 187.176L169.881 181.447C167.334 179.537 163.834 179.537 161.287 181.447L165.584 187.176ZM194.232 208.662L189.935 214.392C192.105 216.019 195.008 216.281 197.435 215.068C199.861 213.855 201.394 211.375 201.394 208.662H194.232ZM165.584 158.528C145.807 158.528 129.774 142.496 129.774 122.718H115.45C115.45 150.407 137.896 172.852 165.584 172.852V158.528ZM201.394 122.718C201.394 142.496 185.361 158.528 165.584 158.528V172.852C193.272 172.852 215.718 150.407 215.718 122.718H201.394ZM165.584 86.9083C185.361 86.9083 201.394 102.941 201.394 122.718H215.718C215.718 95.03 193.272 72.5843 165.584 72.5843V86.9083ZM165.584 72.5843C137.896 72.5843 115.45 95.03 115.45 122.718H129.774C129.774 102.941 145.807 86.9083 165.584 86.9083V72.5843ZM129.774 151.366V208.662H144.098V151.366H129.774ZM141.233 214.392L169.881 192.906L161.287 181.447L132.639 202.933L141.233 214.392ZM161.287 192.906L189.935 214.392L198.529 202.933L169.881 181.447L161.287 192.906ZM201.394 208.662V151.366H187.07V208.662H201.394ZM215.718 72.5843V22.4503H201.394V72.5843H215.718ZM194.232 0.964355H22.3441V15.2883H194.232V0.964355ZM0.858154 22.4503V194.338H15.1821V22.4503H0.858154ZM22.3441 215.824H115.45V201.5H22.3441V215.824ZM0.858154 194.338C0.858154 206.204 10.4778 215.824 22.3441 215.824V201.5C18.3887 201.5 15.1821 198.293 15.1821 194.338H0.858154ZM22.3441 0.964355C10.4778 0.964355 0.858154 10.584 0.858154 22.4503H15.1821C15.1821 18.4949 18.3887 15.2883 22.3441 15.2883V0.964355ZM215.718 22.4503C215.718 10.584 206.098 0.964355 194.232 0.964355V15.2883C198.187 15.2883 201.394 18.4949 201.394 22.4503H215.718ZM43.8301 72.5843H115.45V58.2603H43.8301V72.5843ZM43.8301 115.556H86.8021V101.232H43.8301V115.556Z" fill="#00E0FF"/>
</svg>
