<svg width="47" height="48" viewBox="0 0 47 48" fill="none" xmlns="http://www.w3.org/2000/svg">
<path d="M17.7338 36.5028H29.2847M13.8835 29.7647H33.135M10.0332 4.73779H36.9853C39.1118 4.73779 40.8356 6.65316 40.8356 9.0159V38.9627C40.8356 41.3255 39.1118 43.2408 36.9853 43.2408H10.0332C7.9067 43.2408 6.18286 41.3255 6.18286 38.9627V9.0159C6.18286 6.65316 7.9067 4.73779 10.0332 4.73779ZM23.5046 12.8464C22.1574 11.3464 19.9109 10.943 18.223 12.3165C16.5351 13.69 16.2975 15.9864 17.623 17.6109C18.9485 19.2353 23.5046 23.0267 23.5046 23.0267C23.5046 23.0267 28.0606 19.2353 29.3861 17.6109C30.7118 15.9864 30.5031 13.6755 28.7862 12.3165C27.0692 10.9574 24.8518 11.3464 23.5046 12.8464Z" stroke="#018DB1" stroke-width="3.95752" stroke-linecap="round" stroke-linejoin="round"/>
</svg>
