<svg width="52" height="52" viewBox="0 0 52 52" fill="none" xmlns="http://www.w3.org/2000/svg">
<g clip-path="url(#clip0_199_2205)">
<path d="M52 26C52 11.6407 40.3593 0 26 0C11.6407 0 0 11.6407 0 26C0 38.193 8.39488 48.4245 19.7194 51.2346V33.9456H14.3582V26H19.7194V22.5763C19.7194 13.727 23.7245 9.6252 32.4126 9.6252C34.06 9.6252 36.9023 9.94864 38.065 10.271V17.473C37.4514 17.4086 36.3854 17.3763 35.0615 17.3763C30.7986 17.3763 29.1512 18.9914 29.1512 23.1899V26H37.6438L36.1847 33.9456H29.1512V51.8097C42.0254 50.2549 52.001 39.2933 52.001 26H52Z" fill="#0866FF"/>
<path d="M36.1837 33.9454L37.6428 25.9998H29.1501V23.1897C29.1501 18.9912 30.7975 17.3761 35.0605 17.3761C36.3844 17.3761 37.4504 17.4084 38.064 17.4728V10.2708C36.9013 9.9474 34.0589 9.625 32.4116 9.625C23.7234 9.625 19.7184 13.7268 19.7184 22.5761V25.9998H14.3572V33.9454H19.7184V51.2344C21.7297 51.7336 23.8337 51.9998 25.9989 51.9998C27.0649 51.9998 28.1164 51.9343 29.1491 51.8095V33.9454H36.1826H36.1837Z" fill="white"/>
</g>
<defs>
<clipPath id="clip0_199_2205">
<rect width="52" height="52" fill="white"/>
</clipPath>
</defs>
</svg>
