<svg width="206" height="63" viewBox="0 0 206 63" fill="none" xmlns="http://www.w3.org/2000/svg">
<path d="M0.07 -3.33786e-06C0.07 -3.33786e-06 42.56 -3.33786e-06 52.36 -3.33786e-06L57.68 12.25C45.99 12.25 30.66 12.25 5.39 12.25L0.07 -3.33786e-06ZM5.39 19.25C21.91 19.25 42.49 19.25 53.27 19.25C53.2 21.7 53.27 18.13 53.27 30.38H19.6V49C19.6 49 10.64 49 5.46 49C5.39 49 5.39 50.47 5.39 19.25ZM101.305 14.56L105.295 23.73V49.07H91.7853V25.69H73.6553V37.94H87.1653V49.07H60.2153V14.56H101.305ZM151.278 14.56L155.338 23.8V62.93H141.828V25.69H123.558V37.94H137.278V49.07H110.118V14.56H151.278ZM205.168 28.28V49C203.208 49 161.908 49 159.948 49V39.41H191.728V35.14H159.948V14.56H205.098V24.15H173.388V28.28H205.168Z" fill="#00C5E2"/>
</svg>
