<svg width="232" height="232" viewBox="0 0 232 232" fill="none" xmlns="http://www.w3.org/2000/svg">
<path d="M177.029 116.43C175.946 124.435 176.371 132.551 177.222 148.781L180.888 197.238C180.888 204.833 179.601 208.889 172.778 212.554C144.71 227.628 88.15 227.628 60.0819 212.554C53.2595 208.889 51.9719 204.833 51.9719 197.238L55.638 148.781C56.4882 132.551 56.9133 124.435 55.8308 116.43" stroke="#00E0FF" stroke-width="16.1145" stroke-linecap="round" stroke-linejoin="round"/>
<path d="M137.916 170.145C137.916 179.542 142.417 185.389 148.659 191.63M94.9439 170.145C94.9439 179.542 90.4423 185.389 84.2009 191.63" stroke="#00E0FF" stroke-width="16.1145" stroke-linecap="round"/>
<path d="M67.011 61.6129L108.721 81.4851C112.522 83.2956 114.422 84.2009 116.43 84.2009C118.438 84.2009 120.338 83.2956 124.139 81.4851L165.849 61.6129C175.08 57.2147 179.696 55.0156 180.695 49.3819C181.695 43.7482 178.767 40.4356 172.911 33.8102C143.677 0.729944 89.1821 0.729944 59.9482 33.8102C54.0932 40.4355 51.1656 43.7482 52.1647 49.3819C53.1639 55.0156 57.7796 57.2147 67.011 61.6129Z" stroke="#00E0FF" stroke-width="16.1145" stroke-linecap="round" stroke-linejoin="round"/>
<path d="M137.916 51.9722L116.43 84.2011L94.9438 51.9722" stroke="#00E0FF" stroke-width="16.1145" stroke-linecap="round" stroke-linejoin="round"/>
<path d="M56.0937 57.3433C41.5921 60.2068 28.6241 73.6694 19.6223 85.7216C13.8556 93.4426 10.9723 97.3029 9.54412 104.434C8.11585 111.566 9.62169 117.513 12.6332 129.406L26.5908 184.528C29.0585 194.274 41.2289 192.822 51.9719 181.983M176.766 57.3433C191.268 60.2068 204.235 73.6694 213.237 85.7216C219.004 93.4426 221.887 97.3029 223.316 104.434C224.744 111.566 223.238 117.513 220.226 129.406L206.269 184.528C203.801 194.274 191.631 192.733 180.888 187.403" stroke="#00E0FF" stroke-width="16.1145" stroke-linecap="round" stroke-linejoin="round"/>
</svg>
