<svg width="50" height="50" viewBox="0 0 50 50" fill="none" xmlns="http://www.w3.org/2000/svg">
<path d="M31.6873 10.9106V19.1627" stroke="#00ADD8" stroke-width="3.08378" stroke-miterlimit="10" stroke-linecap="round"/>
<path d="M11.5409 36.4011C13.3124 36.4011 15.0113 35.6974 16.2639 34.4447C17.5165 33.1921 18.2203 31.4932 18.2203 29.7217H32.338C32.338 31.4879 33.0375 33.1823 34.2836 34.434C35.5297 35.6858 37.2208 36.393 38.9871 36.4011" stroke="#00ADD8" stroke-width="3.08378" stroke-linecap="round" stroke-linejoin="round"/>
<path d="M11.5409 24.1475V42.4064C11.5388 43.6478 12.0121 44.8429 12.8636 45.7463C13.715 46.6497 14.88 47.1928 16.1193 47.2642C19.0427 47.7967 22.0071 48.073 24.9786 48.09H25.5311C28.5026 48.0728 31.467 47.7965 34.3904 47.2642V47.2642C35.6287 47.1913 36.7922 46.6475 37.6423 45.7443C38.4925 44.8411 38.9649 43.6468 38.9627 42.4064V24.1475" stroke="#00ADD8" stroke-width="3.08378" stroke-miterlimit="10" stroke-linecap="round"/>
<path d="M18.8145 10.9106V19.1627" stroke="#00ADD8" stroke-width="3.08378" stroke-miterlimit="10" stroke-linecap="round"/>
<path d="M11.5397 41.7208H5.17604C4.77006 41.7235 4.3782 41.5721 4.07953 41.2971C3.78087 41.0221 3.59768 40.644 3.56694 40.2392L2.49823 26.4008L6.41478 13.1756C6.51947 12.814 6.7499 12.5018 7.0645 12.2951L13.501 8.98582L25.2506 13.3031L37.0063 8.93115L43.4428 12.2405C43.7574 12.4458 43.9863 12.7589 44.0864 13.121L48.0091 26.3461L46.9404 40.1845C46.9096 40.5893 46.7264 40.9674 46.4278 41.2424C46.1291 41.5174 45.7372 41.6688 45.3312 41.6661H38.9615" stroke="#00ADD8" stroke-width="3.08378" stroke-miterlimit="10" stroke-linecap="round"/>
<path d="M13.8604 9.05241C13.8604 9.05241 12.5488 1.8144 25.2517 1.88727C37.9607 1.8144 36.6492 9.05241 36.6492 9.05241" stroke="#00ADD8" stroke-width="3.08378" stroke-miterlimit="10" stroke-linecap="round"/>
</svg>
