<svg width="232" height="232" viewBox="0 0 232 232" fill="none" xmlns="http://www.w3.org/2000/svg">
<path d="M89.5725 135.23C89.5725 145.651 97.6298 154.03 107.513 154.03H127.71C136.305 154.03 143.287 146.725 143.287 137.594C143.287 127.818 138.99 124.272 132.652 122.016L100.316 110.736C93.9771 108.48 89.68 105.042 89.68 95.1588C89.68 86.1346 96.6629 78.7219 105.257 78.7219H125.454C135.338 78.7219 143.395 87.1015 143.395 97.5223" stroke="#00E0FF" stroke-width="16.1145" stroke-linecap="round" stroke-linejoin="round"/>
<path d="M116.43 68.0864V164.773" stroke="#00E0FF" stroke-width="16.1145" stroke-linecap="round" stroke-linejoin="round"/>
<path d="M223.86 116.43C223.86 175.731 175.731 223.86 116.43 223.86C57.1286 223.86 9 175.731 9 116.43C9 57.1286 57.1286 9 116.43 9" stroke="#00E0FF" stroke-width="16.1145" stroke-linecap="round" stroke-linejoin="round"/>
<path d="M223.86 51.972V9H180.888" stroke="#00E0FF" stroke-width="16.1145" stroke-linecap="round" stroke-linejoin="round"/>
<path d="M170.145 62.715L223.86 9" stroke="#00E0FF" stroke-width="16.1145" stroke-linecap="round" stroke-linejoin="round"/>
</svg>
