<svg width="220" height="351" viewBox="0 0 220 351" fill="none" xmlns="http://www.w3.org/2000/svg">
<path d="M88.0642 0V43.813H55.2044C25.4116 43.813 0.43813 68.7865 0.43813 98.5793V120.486C0.43813 150.279 19.7159 174.814 48.1943 182.262L160.356 211.179C166.49 212.931 175.252 223.885 175.252 230.457V252.363C175.252 258.497 170.433 263.316 164.299 263.316H54.7663C49.5087 263.316 45.5656 261.564 43.813 260.688V219.503H0V263.316C0 278.213 8.76261 290.919 19.2777 297.491C29.3547 304.501 42.0605 307.129 54.7663 307.129H87.6261V350.942H131.439V307.129H164.299C194.53 307.129 219.065 282.594 219.065 252.363V230.457C219.065 200.664 199.787 176.128 171.309 168.68L59.1476 139.764C53.0138 138.011 44.2512 127.058 44.2512 120.486V98.5793C44.2512 92.4455 49.0706 87.6261 55.2044 87.6261H164.737C169.556 87.6261 173.938 89.3786 175.69 90.2549V131.439H219.503V87.6261C219.503 72.7296 210.741 60.0239 200.226 53.4519C190.149 46.4418 177.443 43.813 164.737 43.813H131.877V0L88.0642 0Z" fill="#00C5E2"/>
</svg>
