<svg width="39" height="62" viewBox="0 0 39 62" fill="none" xmlns="http://www.w3.org/2000/svg">
<path fill-rule="evenodd" clip-rule="evenodd" d="M10.2953 10.0955C8.33382 11.902 6.75 14.8827 6.75 19.75C6.75 22.7103 6.95131 24.4041 7.17052 25.3832C7.35116 26.1901 7.51759 26.4015 7.55177 26.4449L7.55599 26.4503C7.71632 26.6662 7.78646 26.734 7.98352 26.9245L7.98354 26.9245L7.98356 26.9245C8.17507 27.1097 8.48643 27.4108 9.11687 28.0761C10.1782 29.1963 11.3591 30.6508 12.452 32.8365C13.6164 35.1654 14.4329 37.1785 15.0044 38.875H23.9956C24.5671 37.1785 25.3836 35.1654 26.548 32.8365C27.6409 30.6508 28.8218 29.1963 29.8831 28.0761C30.5136 27.4107 30.825 27.1097 31.0165 26.9245L31.0165 26.9245L31.0165 26.9245C31.2135 26.734 31.2837 26.6661 31.444 26.4503L31.4482 26.4449C31.4824 26.4015 31.6488 26.1901 31.8295 25.3832C32.0487 24.4041 32.25 22.7103 32.25 19.75C32.25 14.8827 30.6662 11.902 28.7047 10.0955C26.6573 8.20989 23.5347 7 19.5 7C15.4653 7 12.3427 8.20989 10.2953 10.0955ZM0.375 19.75C0.375 7 8.93755 0.625 19.5 0.625C30.0624 0.625 38.625 7 38.625 19.75C38.625 28.3358 37.0936 29.8665 35.1778 31.7814C34.2487 32.7102 33.2291 33.7293 32.25 35.6875C30.8839 38.4196 30.1033 40.5663 29.6573 42.1275C29.1736 43.8202 27.6354 45.25 25.875 45.25H13.125C11.3646 45.25 9.82636 43.8202 9.34273 42.1275C8.89666 40.5663 8.11605 38.4196 6.75 35.6875C5.77089 33.7293 4.75132 32.7102 3.82216 31.7814C1.90641 29.8665 0.375 28.3358 0.375 19.75ZM9.9375 50.0313C9.9375 49.1511 10.6511 48.4375 11.5313 48.4375H27.4688C28.349 48.4375 29.0625 49.1511 29.0625 50.0313V57.1745C29.0625 57.6922 28.8128 58.1768 28.3786 58.4586C27.2249 59.2077 24.825 60.6591 22.857 61.1476C22.7441 61.1756 22.6277 61.1875 22.5114 61.1875H16.4874C16.3711 61.1875 16.2559 61.1756 16.143 61.1476C14.175 60.6591 11.7751 59.2077 10.6214 58.4586C10.1872 58.1768 9.9375 57.6922 9.9375 57.1745V50.0313ZM16.3125 18.1832L16.3124 18.1829C16.2981 19.931 14.8765 21.3437 13.125 21.3437C11.3646 21.3437 9.9375 19.9166 9.93751 18.1562C9.93751 16.5203 10.66 14.6409 11.8313 13.1767C13.0834 11.6116 15.1276 10.1875 17.9062 10.1875C19.6667 10.1875 21.0938 11.6146 21.0938 13.375C21.0938 15.1354 19.6667 16.5625 17.9062 16.5625C17.4974 16.5625 17.151 16.7321 16.8093 17.1592C16.6316 17.3814 16.4922 17.6361 16.4025 17.8715C16.3379 18.0412 16.3193 18.146 16.3142 18.175C16.3132 18.1805 16.3127 18.1832 16.3125 18.1832Z" fill="#EAEAEA"/>
</svg>
