<svg width="493" height="54" viewBox="0 0 493 54" fill="none" xmlns="http://www.w3.org/2000/svg">
<path d="M0.0313729 0.658323H20.9453V53.5093H5.69398V13.5691L0.0313729 0.658323ZM83.563 0.658323L89.3011 13.8711V42.5616L85.224 53.5093H29.8815C29.8312 53.5093 29.806 51.9741 29.806 48.9037C29.8564 40.2462 29.8815 30.2297 29.8815 18.8542H45.1328V40.2965H74.0498V13.8711H29.8815L24.0679 0.658323C52.9095 0.658323 72.7411 0.658323 83.563 0.658323ZM218.24 0.582823L224.129 14.1731C224.079 40.3469 224.028 53.4338 223.978 53.4338H208.878V40.221H183.132V27.0083H208.878V13.7956H178.149V53.4338C171.454 53.4338 166.32 53.4338 162.746 53.4338C162.746 51.6721 162.746 47.6705 162.746 41.4291C162.746 35.1373 162.746 29.4998 162.746 24.5168C162.746 19.5337 162.746 15.9599 162.746 13.7956L156.933 0.582823H218.24ZM290.315 13.8711H266.079C266.079 27.26 266.079 38.8872 266.079 48.7527V53.5093H250.753V13.8711H229.084L223.27 0.658323C228.404 0.658323 248.815 0.658323 284.502 0.658323L290.315 13.8711ZM353.986 0.658323V53.5093H338.81V34.5584H310.195V53.5093H294.944V13.5691L289.281 0.658323H310.195V21.3457H338.81V0.658323H353.986ZM422.421 13.8711V18.3256C422.421 28.0905 422.421 39.8184 422.421 53.5093H363.002V13.8711L357.188 0.658323H416.683L422.421 13.8711ZM407.17 40.2965V13.8711H378.253V40.2965H407.17ZM476.709 0.658323C476.709 0.658323 476.734 0.658323 476.784 0.658323H476.86H476.935H477.011H477.086H477.162H477.237H477.313H477.388H477.464H477.539H477.615H477.69H477.766H477.841H477.917H477.992H478.068H478.143H478.219H478.294H478.37H478.445H478.521H478.596H478.672H478.747H478.823H478.898H478.974H479.049H479.125H479.2H479.276H479.351H479.427H479.502H479.578H479.653H479.804H479.88H479.955H480.031H480.106H480.182H480.257H480.333H480.408H480.484H480.559H480.71H480.786H480.861H480.937H481.012H481.088H481.239H481.314H481.39H481.465H481.541H481.692H481.767H481.843H481.918H482.069H482.145H482.22H482.296H482.447H482.522H482.598H482.749H482.824H482.9H483.051H483.126H483.202H483.353H483.428H483.504H483.655H483.73H483.806H483.957H484.032H484.108H484.259H484.334H484.485H484.561H484.636H484.787H484.863H485.014H485.089H485.24H485.316H485.467H485.542H485.618H485.769H485.844H485.995H486.071H486.222H486.297H486.448H486.524H486.675H486.75H486.901H486.977H487.128H487.203H487.354H487.43H487.581H487.732H487.807H487.958H488.034H488.185H488.26H488.411H488.487H488.638H488.713H488.864H489.015H489.091H489.242H489.317H489.468H489.544H489.695H489.846H489.921H490.072H490.148H490.299H490.374H490.525H490.601H490.752H490.903H490.978H491.129H491.205H491.356H491.431H491.507H491.658H491.733H491.809H491.96H492.035C492.035 6.04409 492.035 14.6261 492.035 26.4043C492.035 38.1825 492.035 47.2175 492.035 53.5093H472.481L444.243 20.3642V53.5093H428.992C428.992 52.6536 428.992 39.4409 428.992 13.8711L423.178 0.658323H446.735L476.709 35.691V0.658323Z" fill="#00E0FF"/>
<path d="M151.068 0.658323L156.882 13.8711H95.6503L89.8367 0.658323C121.9 0.658323 142.31 0.658323 151.068 0.658323ZM152.05 33.0484H110.902V40.2965H156.882C156.882 40.2965 155.246 44.7008 151.974 53.5093H95.6503C95.6503 47.5195 95.6503 40.825 95.6503 33.4259V21.3457H152.05C152.05 21.3457 152.05 25.2466 152.05 33.0484Z" fill="white"/>
</svg>
