<svg width="58" height="58" viewBox="0 0 58 58" fill="none" xmlns="http://www.w3.org/2000/svg">
<path fill-rule="evenodd" clip-rule="evenodd" d="M34.7661 29.8057C34.1033 27.93 32.3146 26.5833 30.2082 26.5833V25.375H27.7915V26.5833C25.1221 26.5833 22.9582 28.7473 22.9582 31.4167C22.9582 34.086 25.1221 36.25 27.7915 36.25V41.0833C26.7411 41.0833 25.8444 40.4126 25.512 39.4724C25.2897 38.8431 24.5993 38.5133 23.97 38.7358C23.3409 38.9581 23.0111 39.6484 23.2334 40.2776C23.8965 42.1533 25.6852 43.5 27.7915 43.5V44.7083H30.2082V43.5C32.8775 43.5 35.0415 41.336 35.0415 38.6667C35.0415 35.9973 32.8775 33.8333 30.2082 33.8333V29C31.2585 29 32.1553 29.6707 32.4876 30.611C32.71 31.2403 33.4004 31.57 34.0295 31.3476C34.6587 31.1252 34.9886 30.4349 34.7661 29.8057ZM27.7915 29C26.4568 29 25.3749 30.0819 25.3749 31.4167C25.3749 32.7514 26.4568 33.8333 27.7915 33.8333V29ZM30.2082 41.0833C31.5429 41.0833 32.6249 40.0014 32.6249 38.6667C32.6249 37.3319 31.5429 36.25 30.2082 36.25V41.0833Z" fill="#00ADD8"/>
<path fill-rule="evenodd" clip-rule="evenodd" d="M15.8931 10.4176C18.8588 8.96572 23.7224 7.25 29.0469 7.25C34.2605 7.25 38.9966 8.89501 41.9463 10.3266C42.0023 10.3538 42.0576 10.3809 42.1122 10.4079C43.0019 10.8472 43.719 11.2628 44.2248 11.6L39.7613 18.125C50.051 28.6441 57.9999 50.7465 29.0469 50.7465C0.0938748 50.7465 7.82807 29.0464 18.2073 18.125L13.7748 11.6C14.1155 11.3761 14.55 11.1177 15.0667 10.8407C15.3225 10.7035 15.5985 10.5619 15.8931 10.4176ZM36.8927 18.038L40.4661 12.8144C37.1439 13.0534 33.1889 13.8346 29.3827 14.9357C26.6647 15.7221 23.6444 15.602 20.8458 15.0856C20.1352 14.9545 19.4332 14.7968 18.7473 14.6193L21.0678 18.0352C26.0398 19.8054 31.9197 19.8063 36.8927 18.038ZM19.6726 20.0948C25.4914 22.3428 32.484 22.342 38.3019 20.0925C40.6023 22.5032 42.7679 25.5356 44.3294 28.7231C45.9625 32.0565 46.8516 35.3871 46.7064 38.2585C46.5665 41.0292 45.4766 43.3967 42.988 45.1549C40.3929 46.9883 36.0306 48.3298 29.0469 48.3298C22.0569 48.3298 17.6727 47.0112 15.0549 45.1984C12.5472 43.4619 11.4465 41.1276 11.2902 38.3933C11.1279 35.5533 11.9972 32.2394 13.6249 28.8845C15.1775 25.6846 17.3449 22.6045 19.6726 20.0948ZM18.2837 11.9822C19.2501 12.2697 20.2598 12.52 21.2843 12.709C23.8819 13.1884 26.4884 13.2572 28.7111 12.6143C31.3038 11.8642 34.0162 11.2423 36.6007 10.8363C34.3772 10.1668 31.7783 9.66667 29.0469 9.66667C24.8844 9.66667 21.0019 10.8279 18.2837 11.9822Z" fill="#00ADD8"/>
</svg>
