<svg width="215" height="191" viewBox="0 0 215 191" fill="none" xmlns="http://www.w3.org/2000/svg">
<path d="M101.109 53.8257L121.352 59.1598C122.04 59.3206 122.655 59.7039 123.102 60.2503C123.549 60.7967 123.804 61.4755 123.825 62.1812C123.825 63.897 122.3 65.3145 120.423 65.3145H107.144C105.713 65.3104 104.296 65.0318 102.97 64.4939C101.016 63.6732 98.7625 63.8597 97.263 65.2399L90.1758 71.7676C89.848 72.0545 89.5651 72.389 89.3365 72.7598C89.0439 73.2398 88.8492 73.7729 88.7636 74.3284C88.678 74.884 88.7031 75.451 88.8377 75.9968C88.9722 76.5425 89.2134 77.0563 89.5474 77.5084C89.8815 77.9605 90.3016 78.3421 90.7838 78.631C94.7087 80.9865 99.1032 82.4509 103.656 82.9207V89.523C103.656 92.8055 106.577 95.4912 110.136 95.4912H116.615C120.177 95.4912 123.098 92.8055 123.098 89.523V82.958C135.381 81.6151 144.673 71.3946 143.054 59.4582C141.879 50.8789 134.676 44.0528 125.687 41.6655L105.443 36.3314C104.756 36.1706 104.14 35.7873 103.693 35.2409C103.246 34.6945 102.992 34.0157 102.97 33.31C102.97 31.5942 104.496 30.1767 106.372 30.1767H119.651C121.087 30.1789 122.509 30.4576 123.84 30.9973C125.791 31.818 128.048 31.6315 129.547 30.2513L136.634 23.7236C136.951 23.4428 137.224 23.1158 137.444 22.7538C137.739 22.274 137.936 21.7405 138.024 21.184C138.112 20.6276 138.088 20.0594 137.955 19.5121C137.822 18.9648 137.581 18.4493 137.248 17.9954C136.914 17.5415 136.494 17.1582 136.012 16.8676C132.085 14.5122 127.69 13.0478 123.135 12.578V5.9682C123.135 2.68569 120.218 0 116.656 0H110.177C106.614 0 103.697 2.68569 103.697 5.9682V12.5332C91.4291 13.8761 82.1187 24.0966 83.7376 36.033C84.9088 44.6123 92.1341 51.4384 101.109 53.8257ZM210.853 122.385C206.451 118.394 199.588 118.655 194.962 122.385L160.496 149.951C156.265 153.345 151 155.188 145.576 155.173H101.459C99.8765 155.173 98.3585 154.544 97.2392 153.425C96.12 152.306 95.4912 150.788 95.4912 149.205C95.4912 147.622 96.12 146.104 97.2392 144.985C98.3585 143.866 99.8765 143.237 101.459 143.237H130.663C136.593 143.237 142.118 139.171 143.065 133.315C143.182 132.642 143.239 131.961 143.237 131.278C143.231 128.116 141.971 125.086 139.733 122.852C137.495 120.619 134.462 119.364 131.3 119.364H71.6184C61.5531 119.367 51.7945 122.829 43.9782 129.171L26.6331 143.237H5.9682C4.38534 143.237 2.8673 143.866 1.74805 144.985C0.628791 146.104 0 147.622 0 149.205L0 185.014C0 186.597 0.628791 188.115 1.74805 189.234C2.8673 190.354 4.38534 190.982 5.9682 190.982H139.048C144.47 190.987 149.732 189.145 153.968 185.76L210.379 140.626C211.736 139.54 212.84 138.172 213.613 136.616C214.386 135.06 214.81 133.354 214.856 131.616C214.901 129.879 214.567 128.153 213.876 126.559C213.185 124.965 212.155 123.54 210.857 122.385H210.853Z" fill="#00E0FF"/>
</svg>
