<svg width="52" height="52" viewBox="0 0 52 52" fill="none" xmlns="http://www.w3.org/2000/svg">
<g clip-path="url(#clip0_199_2204)">
<path d="M51.8437 15.6228C51.7171 12.9436 51.2776 11.1139 50.6349 9.51307C49.9822 7.83354 48.9587 6.31225 47.636 5.05482C46.3375 3.77434 44.7657 2.78306 43.0308 2.15088C41.3768 1.52908 39.4872 1.10392 36.7196 0.982169C33.9469 0.859267 33.061 0.830078 26 0.830078C18.939 0.830078 18.0531 0.859267 15.2804 0.9814C12.5128 1.10392 10.6232 1.52946 8.96924 2.15165C7.23434 2.78344 5.6629 3.77434 4.36401 5.05482C3.04132 6.31187 2.01736 7.83316 1.36435 9.51268C0.722046 11.1139 0.282867 12.9436 0.157104 15.6224C0.0301514 18.307 0 19.1643 0 25.9999C0 32.8359 0.0301514 33.6935 0.157104 36.3778C0.283264 39.0567 0.722839 40.8863 1.36554 42.4875C2.01816 44.1667 3.04172 45.6883 4.36441 46.9454C5.6629 48.2259 7.23474 49.2168 8.96964 49.8485C10.6232 50.4711 12.5132 50.8963 15.2808 51.0188C18.0539 51.1413 18.9394 51.1701 26.0004 51.1701C33.0614 51.1701 33.9473 51.1413 36.72 51.0188C39.4876 50.8963 41.3772 50.4711 43.0312 49.8485C46.5236 48.5412 49.2844 45.8685 50.6349 42.4875C51.278 40.8863 51.7171 39.0567 51.8437 36.3778C51.9698 33.6932 52 32.8359 52 26.0003C52 19.1643 51.9698 18.307 51.8437 15.6228ZM47.1635 36.1715C47.048 38.6257 46.6243 39.9584 46.2685 40.8453C45.3937 43.0406 43.6017 44.7754 41.334 45.6223C40.4179 45.9668 39.0413 46.377 36.5062 46.4887C33.7652 46.6101 32.9427 46.6354 26 46.6354C19.0569 46.6354 18.2348 46.6101 15.4934 46.4887C12.9587 46.377 11.5821 45.9668 10.6656 45.6223C9.53656 45.2186 8.51498 44.5753 7.6763 43.7392C6.81262 42.9273 6.1481 41.9387 5.73114 40.8453C5.37527 39.9584 4.95157 38.6257 4.83612 36.1715C4.71115 33.5176 4.68457 32.7215 4.68457 26.0007C4.68457 19.2795 4.71115 18.4837 4.83612 15.8294C4.95197 13.3752 5.37527 12.0425 5.73114 11.1557C6.1481 10.0623 6.81302 9.07331 7.6763 8.26139C8.51498 7.42528 9.53656 6.78196 10.666 6.37869C11.5821 6.0338 12.9587 5.624 15.4938 5.51186C18.2352 5.39087 19.0576 5.36514 26 5.36514H25.9996C32.942 5.36514 33.7644 5.39087 36.5062 5.51224C39.0413 5.624 40.4175 6.03419 41.334 6.37869C42.463 6.78235 43.4846 7.42566 44.3233 8.26139C45.187 9.07331 45.8515 10.0623 46.2681 11.1557C46.6243 12.0425 47.048 13.3752 47.1635 15.8294C47.2885 18.4833 47.315 19.2795 47.315 26.0003C47.315 32.7215 47.2888 33.5173 47.1635 36.1715Z" fill="url(#paint0_linear_199_2204)"/>
<path d="M25.9996 13.0747C18.626 13.0747 12.6485 18.8618 12.6485 26.0001C12.6485 33.1384 18.626 38.9251 25.9996 38.9251C33.3736 38.9251 39.3511 33.1384 39.3511 26.0001C39.3511 18.8618 33.3736 13.0747 25.9996 13.0747ZM25.9996 34.39C21.2135 34.3897 17.3331 30.6335 17.3335 25.9997C17.3335 21.3663 21.2135 17.6098 26 17.6098C30.7865 17.6102 34.6665 21.3663 34.6665 25.9997C34.6665 30.6335 30.7861 34.39 25.9996 34.39Z" fill="url(#paint1_linear_199_2204)"/>
<path d="M42.9986 12.5646C42.9986 14.2326 41.6017 15.5849 39.8788 15.5849C38.1554 15.5849 36.7585 14.2326 36.7585 12.5646C36.7585 10.8962 38.1554 9.54395 39.8788 9.54395C41.6017 9.54395 42.9986 10.8962 42.9986 12.5646Z" fill="url(#paint2_linear_199_2204)"/>
</g>
<defs>
<linearGradient id="paint0_linear_199_2204" x1="4.36375" y1="46.9456" x2="46.2332" y2="3.69587" gradientUnits="userSpaceOnUse">
<stop stop-color="#FFD600"/>
<stop offset="0.5" stop-color="#FF0100"/>
<stop offset="1" stop-color="#D800B9"/>
</linearGradient>
<linearGradient id="paint1_linear_199_2204" x1="16.5591" y1="35.1394" x2="34.8284" y2="16.2678" gradientUnits="userSpaceOnUse">
<stop stop-color="#FF6400"/>
<stop offset="0.5" stop-color="#FF0100"/>
<stop offset="1" stop-color="#FD0056"/>
</linearGradient>
<linearGradient id="paint2_linear_199_2204" x1="37.6725" y1="14.7002" x2="41.9417" y2="10.2902" gradientUnits="userSpaceOnUse">
<stop stop-color="#F30072"/>
<stop offset="1" stop-color="#E50097"/>
</linearGradient>
<clipPath id="clip0_199_2204">
<rect width="52" height="52" fill="white"/>
</clipPath>
</defs>
</svg>
