<svg width="52" height="52" viewBox="0 0 52 52" fill="none" xmlns="http://www.w3.org/2000/svg">
<g clip-path="url(#clip0_199_2203)">
<path d="M48.1614 0H3.83861C2.82055 0 1.84418 0.404425 1.1243 1.1243C0.404425 1.84418 0 2.82055 0 3.83861V48.1614C0 49.1795 0.404425 50.1558 1.1243 50.8757C1.84418 51.5956 2.82055 52 3.83861 52H48.1614C49.1795 52 50.1558 51.5956 50.8757 50.8757C51.5956 50.1558 52 49.1795 52 48.1614V3.83861C52 2.82055 51.5956 1.84418 50.8757 1.1243C50.1558 0.404425 49.1795 0 48.1614 0ZM15.4989 44.2975H7.68084V19.4639H15.4989V44.2975ZM11.5844 16.0225C10.6976 16.0175 9.83215 15.7499 9.09726 15.2535C8.36236 14.7571 7.79099 14.0542 7.45523 13.2333C7.11948 12.4125 7.0344 11.5106 7.21073 10.6415C7.38707 9.77236 7.8169 8.97493 8.446 8.34986C9.0751 7.72479 9.87527 7.30008 10.7455 7.12933C11.6158 6.95858 12.5171 7.04945 13.3357 7.39047C14.1544 7.73148 14.8537 8.30736 15.3453 9.04543C15.837 9.78349 16.099 10.6507 16.0983 11.5375C16.1067 12.1312 15.9954 12.7206 15.7712 13.2704C15.5469 13.8202 15.2143 14.3193 14.7931 14.7378C14.3718 15.1563 13.8707 15.4858 13.3194 15.7065C12.7682 15.9272 12.1781 16.0347 11.5844 16.0225ZM44.3156 44.3192H36.5011V30.7522C36.5011 26.7511 34.8003 25.5161 32.6047 25.5161C30.2864 25.5161 28.0114 27.2639 28.0114 30.8533V44.3192H20.1933V19.4819H27.7117V22.9233H27.8128C28.5675 21.3958 31.2108 18.785 35.2444 18.785C39.6067 18.785 44.3192 21.3742 44.3192 28.9575L44.3156 44.3192Z" fill="#0A66C2"/>
</g>
<defs>
<clipPath id="clip0_199_2203">
<rect width="52" height="52" fill="white"/>
</clipPath>
</defs>
</svg>
