<svg width="59" height="59" viewBox="0 0 59 59" fill="none" xmlns="http://www.w3.org/2000/svg">
<path d="M42.2178 31.2708C42.2178 32.2717 41.3892 33.0833 40.3668 33.0833C39.3445 33.0833 38.5157 32.2717 38.5157 31.2708C38.5157 30.2698 39.3445 29.4583 40.3668 29.4583C41.3892 29.4583 42.2178 30.2698 42.2178 31.2708Z" fill="#00A3CC"/>
<path d="M21.239 41.5414H26.1752V39.1248H21.239V41.5414Z" fill="#00A3CC"/>
<path d="M26.1752 46.3749H21.239V43.9583H26.1752V46.3749Z" fill="#00A3CC"/>
<path fill-rule="evenodd" clip-rule="evenodd" d="M33.2376 27.2178C33.8417 27.2178 33.942 27.1078 34.1342 26.8971C34.2456 26.7751 34.3879 26.6191 34.6769 26.4312C35.4768 26.9427 36.4206 27.2108 37.3839 27.2002L40.4435 26.1392C41.3058 25.462 41.8976 24.523 42.1202 23.4797C42.3428 22.4363 42.1824 21.3517 41.6661 20.4075C41.1498 19.4632 40.3088 18.7167 39.2838 18.2927C39.0498 17.2825 38.4603 16.3789 37.6131 15.732L34.6265 14.7361H34.2902C33.6259 13.8124 32.6286 13.1535 31.4878 12.8848L26.3185 12.5417C25.2542 12.626 24.2505 13.049 23.4691 13.7427C23.0998 13.6598 22.7219 13.6168 22.3426 13.6146C21.424 13.6164 20.5256 13.8715 19.7559 14.3491C18.9862 14.8267 18.3779 15.5064 18.0046 16.3061L15.5718 17.9483C14.9663 18.73 14.6404 19.6762 14.642 20.6477C14.636 21.0539 14.6927 21.4588 14.8102 21.8493C14.1718 22.6385 13.8286 23.6084 13.8349 24.6048C13.8335 25.7604 14.2967 26.8727 15.1297 27.7129C15.1968 28.5402 15.5002 29.3343 16.007 30.0092C16.5138 30.684 17.2046 31.214 18.0046 31.5418C18.9266 32.0925 19.7073 32.8332 20.2892 33.7093C20.8712 34.5854 21.1113 35.5746 21.2391 36.6043H26.3185V31.7981C26.3174 30.9448 26.5673 30.1081 27.0397 29.3833C27.1115 29.2732 27.1784 29.1664 27.2432 29.063C27.6051 28.4857 27.899 28.0168 28.5803 27.6968C29.333 27.4224 30.0111 26.9897 30.5643 26.4312C31.3521 26.9436 32.2838 27.2178 33.2376 27.2178ZM35.093 23.804L36.0266 24.4011C36.3209 24.5893 36.6599 24.7117 37.0161 24.7572L39.1528 24.0162C39.4344 23.7186 39.6231 23.3595 39.7043 22.9787C39.8076 22.4939 39.7345 21.9879 39.4903 21.5414C39.2453 21.0935 38.838 20.7249 38.3232 20.5119L37.157 20.0294L36.8769 18.8204C36.7948 18.4662 36.6143 18.1327 36.3485 17.8565L34.2177 17.1459H33.0096L32.2723 16.1207C31.9906 15.7291 31.5725 15.4269 31.0766 15.2728L26.3667 14.9603C25.8959 15.0269 25.4639 15.2271 25.1268 15.5263L24.1726 16.3735L22.9171 16.0913C22.7275 16.0488 22.5332 16.0263 22.3378 16.0245C21.8848 16.0272 21.4471 16.1539 21.0769 16.3836C20.7049 16.6144 20.4208 16.9366 20.2495 17.3038L19.9664 17.9104L17.3627 19.6679C17.1953 19.9693 17.1095 20.3019 17.1101 20.637V20.6563L17.1099 20.6758C17.1075 20.8386 17.1302 21.0015 17.1777 21.1596L17.5391 22.3609L16.7451 23.3427C16.4513 23.7058 16.3002 24.1425 16.3031 24.5829V24.592V24.601C16.3023 25.118 16.509 25.6278 16.9006 26.0228L17.5195 26.6471L17.5899 27.5143C17.6204 27.8892 17.758 28.2547 17.9955 28.5708C18.2333 28.8876 18.5639 29.1444 18.957 29.3054L19.1301 29.3762L19.2901 29.4719C19.657 29.6911 20.0077 29.933 20.3401 30.1961C20.7688 30.525 21.3036 31.0076 21.996 31.873C22.721 32.7793 23.1176 33.7925 23.2252 34.1858H23.8567V33.1285C23.8567 33.023 23.8544 32.8966 23.8518 32.7551C23.8388 32.0607 23.8189 30.9938 24.0351 30.1549C24.2953 29.1447 24.8305 28.1582 25.5005 27.219C26.1706 26.2798 27.1829 25.6236 27.5636 25.482C27.9445 25.3404 28.3301 25.1941 28.7061 24.8259C29.0069 24.5314 29.8405 23.6837 30.2198 23.2966C30.6488 23.5783 31.5878 24.1944 31.9117 24.4059C32.2357 24.6173 32.6638 24.7362 32.8373 24.7694C32.8838 24.7315 33.0301 24.6173 33.2422 24.4624C33.4543 24.3077 34.2883 23.7655 34.6787 23.5138L35.093 23.804Z" fill="#00A3CC"/>
<path fill-rule="evenodd" clip-rule="evenodd" d="M49.2699 31.1086C49.2699 31.1086 52.4744 33.9314 52.0518 36.196C51.6293 38.4608 47.4564 39.0844 47.4564 39.0844C47.4564 48.2349 38.5323 47.6524 34.0782 46.7918C32.5971 46.5055 31.6101 46.1886 31.6101 46.1886V47.9082C31.6101 47.9082 31.5174 48.1962 31.2312 48.6018C30.5514 49.5649 28.7801 51.1904 24.5673 51.1904C21.7485 51.409 16.9238 49.6023 15.6449 47.0547V39.2632C11.1375 35.9645 7.66467 31.5208 7.66467 25.7604C7.66467 20.9727 9.70519 16.3811 13.3373 12.9957C16.9695 9.6102 21.8957 7.70827 27.0323 7.70827C30.9548 7.70412 34.8308 8.49948 38.3889 10.0386C41.1928 11.1392 43.6476 12.8907 45.5196 15.1261C47.2291 17.4744 48.1766 20.232 48.2487 23.0691C48.2642 23.721 48.2549 24.3392 48.2458 24.9373C48.2141 27.049 48.186 28.909 49.2699 31.1086ZM47.2581 32.5872L47.0471 32.1589C45.6832 29.3911 45.7318 26.8225 45.7731 24.6464C45.7831 24.1159 45.7928 23.6087 45.7813 23.1276C45.722 20.8079 44.9555 18.5422 43.5577 16.5951C41.9624 14.712 39.871 13.2241 37.4705 12.2818L37.4307 12.2662L37.3914 12.2492C34.1512 10.8475 30.6161 10.1212 27.035 10.1249H27.0323C22.5121 10.1249 18.2 11.7997 15.039 14.7461C11.8821 17.6885 10.1328 21.6531 10.1328 25.7604C10.1328 30.452 12.9357 34.2634 17.1224 37.3274L18.113 38.0523V46.3538C18.5254 46.833 19.3245 47.4299 20.5255 47.949C21.9979 48.5854 23.4911 48.8496 24.3726 48.7812L24.4698 48.7737H24.5673C27.0703 48.7737 28.2509 48.1001 28.7599 47.6877C28.9352 47.5454 29.0585 47.4122 29.1421 47.3063V42.8526L32.3757 43.8912L32.3775 43.8918L32.3793 43.8923L32.3978 43.8981C32.4185 43.9044 32.4533 43.915 32.5013 43.9291C32.5972 43.9575 32.7455 44.0001 32.9385 44.0514C33.3255 44.1545 33.887 44.2918 34.5632 44.4223C35.9367 44.6871 37.6863 44.9047 39.3733 44.7974C41.0873 44.6885 42.4631 44.2626 43.3811 43.4979C44.2063 42.8105 44.9883 41.5778 44.9883 39.0844V37.0086L47.0753 36.6968L47.0885 36.6946C47.1042 36.6919 47.1332 36.687 47.1739 36.6794C47.2555 36.6642 47.3813 36.6389 47.5369 36.6022C47.8554 36.527 48.2631 36.4122 48.6613 36.2527C49.0748 36.0872 49.3747 35.914 49.5524 35.7654C49.5795 35.7427 49.6004 35.7236 49.6163 35.7079C49.6065 35.6435 49.5801 35.528 49.5076 35.3523C49.372 35.0242 49.1384 34.641 48.8364 34.2419C48.5415 33.8524 48.2275 33.5077 47.9827 33.2577C47.8621 33.1346 47.7629 33.0392 47.6974 32.9775C47.6648 32.9468 47.6408 32.925 47.6272 32.9125L47.6192 32.9053L47.6177 32.9039L47.6164 32.9029L47.6148 32.9014L47.2581 32.5872ZM49.661 35.6572L49.66 35.6591L49.6577 35.6623C49.6597 35.6589 49.661 35.6572 49.661 35.6572Z" fill="#00A3CC"/>
</svg>
