<svg width="215" height="215" viewBox="0 0 215 215" fill="none" xmlns="http://www.w3.org/2000/svg">
<path d="M181.288 167.859H141.002C135.659 167.859 130.536 169.982 126.758 173.759C122.981 177.537 120.859 182.66 120.859 188.002V201.431H134.287V188.002C134.287 186.222 134.995 184.514 136.254 183.255C137.513 181.996 139.221 181.288 141.002 181.288H181.288C183.069 181.288 184.777 181.996 186.036 183.255C187.295 184.514 188.002 186.222 188.002 188.002V201.431H201.431V188.002C201.431 182.66 199.309 177.537 195.531 173.759C191.754 169.982 186.63 167.859 181.288 167.859Z" fill="#00E0FF"/>
<path d="M134.287 134.287C134.287 139.599 135.863 144.792 138.814 149.208C141.765 153.625 145.959 157.067 150.867 159.1C155.774 161.133 161.175 161.665 166.384 160.629C171.594 159.592 176.38 157.034 180.136 153.278C183.892 149.522 186.45 144.737 187.486 139.527C188.523 134.317 187.991 128.917 185.958 124.009C183.925 119.102 180.483 114.907 176.066 111.956C171.649 109.005 166.457 107.43 161.145 107.43C154.022 107.43 147.19 110.259 142.154 115.296C137.117 120.333 134.287 127.164 134.287 134.287ZM174.574 134.287C174.574 136.943 173.786 139.539 172.31 141.748C170.835 143.956 168.738 145.677 166.284 146.694C163.83 147.71 161.13 147.976 158.525 147.458C155.92 146.94 153.527 145.661 151.649 143.783C149.771 141.905 148.492 139.512 147.974 136.907C147.456 134.302 147.722 131.602 148.738 129.148C149.755 126.694 151.476 124.597 153.684 123.122C155.893 121.646 158.489 120.858 161.145 120.858C164.706 120.858 168.122 122.273 170.64 124.792C173.159 127.31 174.574 130.726 174.574 134.287Z" fill="#00E0FF"/>
<path d="M40.2862 141.002V134.288H26.8574V141.002C26.8574 153.467 31.8093 165.422 40.6236 174.236C49.4379 183.051 61.3927 188.003 73.858 188.003H94.0011V174.574H73.858C64.9542 174.574 56.4151 171.037 50.1191 164.741C43.8232 158.445 40.2862 149.906 40.2862 141.002Z" fill="#00E0FF"/>
<path d="M127.573 67.1436H174.574V80.5723H127.573V67.1436Z" fill="#00E0FF"/>
<path d="M127.573 40.2861H194.717V53.7149H127.573V40.2861Z" fill="#00E0FF"/>
<path d="M127.573 13.4287H194.717V26.8575H127.573V13.4287Z" fill="#00E0FF"/>
<path d="M73.858 73.8579H33.5718C28.2295 73.8579 23.1061 75.9801 19.3285 79.7577C15.5509 83.5353 13.4287 88.6587 13.4287 94.001V107.43H26.8575V94.001C26.8575 92.2203 27.5649 90.5124 28.824 89.2532C30.0832 87.9941 31.7911 87.2866 33.5718 87.2866H73.858C75.6388 87.2866 77.3466 87.9941 78.6058 89.2532C79.865 90.5124 80.5724 92.2203 80.5724 94.001V107.43H94.0012V94.001C94.0012 88.6587 91.8789 83.5353 88.1014 79.7577C84.3238 75.9801 79.2003 73.8579 73.858 73.8579Z" fill="#00E0FF"/>
<path d="M53.7149 67.1437C59.0268 67.1437 64.2194 65.5685 68.6361 62.6174C73.0528 59.6662 76.4952 55.4717 78.528 50.5641C80.5608 45.6566 81.0926 40.2564 80.0563 35.0466C79.02 29.8367 76.4621 25.0512 72.706 21.2951C68.9499 17.539 64.1644 14.9811 58.9545 13.9448C53.7447 12.9085 48.3446 13.4403 43.437 15.4731C38.5294 17.5059 34.3349 20.9483 31.3837 25.365C28.4326 29.7817 26.8574 34.9743 26.8574 40.2862C26.8574 47.4093 29.687 54.2406 34.7238 59.2773C39.7605 64.3141 46.5919 67.1437 53.7149 67.1437ZM53.7149 26.8575C56.3709 26.8575 58.9672 27.645 61.1755 29.1206C63.3839 30.5962 65.1051 32.6935 66.1214 35.1472C67.1378 37.601 67.4038 40.3011 66.8856 42.906C66.3675 45.5109 65.0885 47.9037 63.2105 49.7818C61.3324 51.6598 58.9396 52.9388 56.3347 53.4569C53.7298 53.9751 51.0297 53.7091 48.5759 52.6927C46.1222 51.6764 44.0249 49.9552 42.5493 47.7468C41.0737 45.5385 40.2862 42.9422 40.2862 40.2862C40.2862 36.7247 41.701 33.309 44.2193 30.7906C46.7377 28.2723 50.1534 26.8575 53.7149 26.8575Z" fill="#00E0FF"/>
</svg>
