<svg width="657" height="38" viewBox="0 0 657 38" fill="none" xmlns="http://www.w3.org/2000/svg">
<path d="M29.4 2.04L32.48 9.04C20.2 9.04 15.52 9.04 3.08 9.04L0.04 2C0.04 2 22.4 2.04 29.4 2.04ZM11.16 23.04C23.52 23.04 10.16 23.04 32.48 23.04C32.48 23.04 32.44 23.16 29.84 30.04C24.92 30.04 9.52 30.04 3.08 30.04C3.08 12.16 3.08 13 3.12 13C5.88 13 8.56 13 11.16 13V23.04ZM59.6534 15.56V24.76L57.3334 30H36.0934L33.8134 24.76V15.56L36.0934 10.32H57.3334L59.6534 15.56ZM51.9334 23.68V16.68H41.4934V23.68H51.9334ZM95.1022 10.32L97.3822 15.56V30.04H89.6622V16.68H83.6222V30.04H75.9022V16.68H69.8622V30.04H62.1822V10.32H95.1022ZM123.711 10.32L125.991 15.56V30.04H110.471V23.68H118.311V16.68H107.831V37.96H100.151V10.32H123.711ZM136.025 15.84V24.52H151.905V30H130.625L128.345 24.76V15.56L130.625 10.32H151.865L154.185 15.56V22.2H138.705V18.28H146.465V15.84H136.025ZM164.65 16.68V23H176.65V30H156.93L156.97 15.36L154.77 10.32H156.97V-2.38419e-06H164.65V10.32H175.17V16.68H164.65ZM186.181 15.84V24.52H202.061V30H180.781L178.501 24.76V15.56L180.781 10.32H202.021L204.341 15.56V22.2H188.861V18.28H196.621V15.84H186.181ZM245.091 6.36H234.691V10.36H242.771V16.68H234.691V30H227.011V15.6L224.731 10.36H227.011V5.28L229.291 0.0399995H245.091V6.36ZM269.966 15.56V24.76L267.646 30H246.406L244.126 24.76V15.56L246.406 10.32H267.646L269.966 15.56ZM262.246 23.68V16.68H251.806V23.68H262.246ZM291.895 10.32V16.68H284.415L280.175 18.48V30H272.495V10.32H280.175V12.08L284.415 10.32H291.895ZM336.561 10.32L338.841 15.56V30.04H331.121V16.68H320.761V23.68H328.481V30.04H313.081V10.32H336.561ZM384.531 10.32L386.811 15.56V30.04H371.291V23.68H379.131V16.68H368.651V37.96H360.971V10.32H384.531ZM408.965 10.32V16.68H401.485L397.245 18.48V30H389.565V10.32H397.245V12.08L401.485 10.32H408.965ZM410.776 -2.38419e-06H418.456V6.36H410.776V-2.38419e-06ZM410.776 30.04V10.32H418.456V30.04H410.776ZM446.641 15.84L432.401 24.52H446.641V30H420.881V24.52L435.121 15.84H420.881V10.36H446.641V15.84ZM456.376 15.84V24.52H472.256V30H450.976L448.696 24.76V15.56L450.976 10.32H472.216L474.536 15.56V22.2H459.056V18.28H466.816V15.84H456.376ZM519.727 10.32L522.007 15.56V30.04H506.487V23.68H514.327V16.68H503.847V37.96H496.167V10.32H519.727ZM550.2 15.56V24.76L547.88 30H526.64L524.36 24.76V15.56L526.64 10.32H547.88L550.2 15.56ZM542.48 23.68V16.68H532.04V23.68H542.48ZM578.169 15.56V24.76L575.849 30H554.609L552.329 24.76V15.56L554.609 10.32H575.849L578.169 15.56ZM570.449 23.68V16.68H560.009V23.68H570.449ZM577.831 0.0399995C580.751 0.0399995 578.751 0.0399995 587.831 0.0399995V30H580.111V5.32L577.831 0.0399995ZM635.591 15.56V24.76L633.271 30H612.031L609.751 24.76V15.56L612.031 10.32H633.271L635.591 15.56ZM627.871 23.68V16.68H617.431V23.68H627.871ZM656.654 6.36H646.254V10.36H654.334V16.68H646.254V30H638.574V15.6L636.294 10.36H638.574V5.28L640.854 0.0399995H656.654V6.36Z" fill="#00C4F4"/>
</svg>
