<svg width="64" height="64" viewBox="0 0 64 64" fill="none" xmlns="http://www.w3.org/2000/svg">
<path fill-rule="evenodd" clip-rule="evenodd" d="M43.6364 32C43.6364 38.4266 38.4266 43.6364 32 43.6364C25.5734 43.6364 20.3636 38.4266 20.3636 32C20.3636 25.5734 25.5734 20.3636 32 20.3636C38.4266 20.3636 43.6364 25.5734 43.6364 32ZM39.2727 32C39.2727 36.0166 36.0166 39.2727 32 39.2727C27.9834 39.2727 24.7273 36.0166 24.7273 32C24.7273 27.9834 27.9834 24.7273 32 24.7273C36.0166 24.7273 39.2727 27.9834 39.2727 32Z" fill="white"/>
<path fill-rule="evenodd" clip-rule="evenodd" d="M32 0C31.2209 0 30.4479 0.0278867 29.682 0.0827658C27.4607 0.24193 25.7678 1.87556 25.2825 3.87426L24.2583 8.09223C24.2031 8.31986 23.9979 8.5931 23.6056 8.73465C22.8825 8.99561 22.1751 9.28927 21.4852 9.61382C21.1084 9.7911 20.7702 9.74316 20.57 9.62121L16.863 7.36261C15.1074 6.29298 12.7564 6.3343 11.0732 7.79052C9.90148 8.80418 8.80418 9.90148 7.79052 11.0732C6.33429 12.7564 6.29298 15.1074 7.36262 16.863L9.62121 20.57C9.74316 20.7702 9.7911 21.1084 9.61381 21.4852C9.28927 22.1751 8.99561 22.8825 8.73465 23.6056C8.5931 23.9979 8.31986 24.2031 8.09223 24.2583L3.87426 25.2825C1.87556 25.7678 0.24193 27.4607 0.0827658 29.682C0.0278867 30.4479 0 31.2209 0 32C0 32.7791 0.0278867 33.5521 0.0827658 34.318C0.24193 36.5393 1.87556 38.2322 3.87427 38.7175L8.09223 39.7417C8.31986 39.7969 8.5931 40.0021 8.73465 40.3944C8.99561 41.1175 9.28927 41.8249 9.61381 42.5148C9.7911 42.8916 9.74316 43.2298 9.62121 43.43L7.36261 47.137C6.29298 48.8926 6.3343 51.2436 7.79051 52.9268C8.80418 54.0985 9.90148 55.1958 11.0732 56.2095C12.7565 57.6657 15.1074 57.707 16.863 56.6374L20.57 54.3788C20.7702 54.2568 21.1084 54.2089 21.4852 54.3862C22.1751 54.7107 22.8825 55.0044 23.6056 55.2654C23.9979 55.4069 24.2031 55.6801 24.2583 55.9078L25.2825 60.1257C25.7678 62.1244 27.4607 63.7581 29.682 63.9172C30.4479 63.9721 31.2209 64 32 64C32.7791 64 33.5521 63.9721 34.318 63.9172C36.5393 63.7581 38.2322 62.1244 38.7175 60.1257L39.7417 55.9078C39.7969 55.6801 40.0021 55.4069 40.3944 55.2654C41.1175 55.0044 41.8249 54.7107 42.5148 54.3862C42.8916 54.2089 43.2298 54.2568 43.43 54.3788L47.137 56.6374C48.8926 57.707 51.2436 57.6657 52.9268 56.2095C54.0985 55.1958 55.1958 54.0985 56.2095 52.9268C57.6657 51.2435 57.707 48.8926 56.6374 47.137L54.3788 43.43C54.2568 43.2298 54.2089 42.8916 54.3862 42.5148C54.7107 41.8249 55.0044 41.1175 55.2654 40.3944C55.4069 40.0021 55.6801 39.7969 55.9078 39.7417L60.1257 38.7175C62.1244 38.2322 63.7581 36.5393 63.9172 34.318C63.9721 33.5521 64 32.7791 64 32C64 31.2209 63.9721 30.4479 63.9172 29.682C63.7581 27.4607 62.1244 25.7678 60.1257 25.2825L55.9078 24.2583C55.6801 24.2031 55.4069 23.9979 55.2654 23.6056C55.0044 22.8825 54.7107 22.1751 54.3862 21.4852C54.2089 21.1084 54.2568 20.7702 54.3788 20.57L56.6374 16.863C57.707 15.1074 57.6657 12.7564 56.2095 11.0732C55.1958 9.90148 54.0985 8.80418 52.9268 7.79051C51.2436 6.33429 48.8926 6.29298 47.137 7.36261L43.43 9.62121C43.2298 9.74316 42.8916 9.7911 42.5148 9.61381C41.8249 9.28927 41.1175 8.99561 40.3944 8.73465C40.0021 8.5931 39.7969 8.31986 39.7417 8.09223L38.7175 3.87427C38.2322 1.87556 36.5393 0.24193 34.318 0.0827658C33.5521 0.0278867 32.7791 0 32 0ZM29.9939 4.43524C30.656 4.38779 31.325 4.36364 32 4.36364C32.675 4.36364 33.344 4.38779 34.0061 4.43524C34.1677 4.44682 34.3987 4.5811 34.4771 4.90385L35.5012 9.12181C35.944 10.9455 37.3198 12.2642 38.9132 12.8392C39.5078 13.0538 40.0896 13.2953 40.6572 13.5623C42.1911 14.2839 44.0973 14.3244 45.7004 13.3477L49.4074 11.0891C49.6909 10.9163 49.9493 10.9846 50.0719 11.0906C51.0847 11.9668 52.0332 12.9153 52.9094 13.9281C53.0154 14.0507 53.0837 14.3091 52.9109 14.5926L50.6523 18.2996C49.6756 19.9027 49.7161 21.8089 50.4377 23.3428C50.7047 23.9104 50.9462 24.4922 51.1608 25.0868C51.7358 26.6802 53.0545 28.056 54.8782 28.4988L59.0961 29.5229C59.4189 29.6013 59.5532 29.8323 59.5648 29.9939C59.6122 30.656 59.6364 31.325 59.6364 32C59.6364 32.675 59.6122 33.344 59.5648 34.0061C59.5532 34.1677 59.4189 34.3987 59.0962 34.4771L54.8782 35.5012C53.0545 35.944 51.7358 37.3198 51.1608 38.9132C50.9462 39.5078 50.7047 40.0896 50.4377 40.6572C49.7161 42.1911 49.6756 44.0973 50.6523 45.7004L52.9109 49.4074C53.0837 49.691 53.0154 49.9493 52.9094 50.0719C52.0332 51.0847 51.0847 52.0332 50.0719 52.9094C49.9493 53.0154 49.691 53.0837 49.4074 52.9109L45.7004 50.6523C44.0973 49.6756 42.1911 49.7161 40.6572 50.4377C40.0896 50.7047 39.5078 50.9462 38.9132 51.1608C37.3198 51.7358 35.944 53.0545 35.5012 54.8782L34.4771 59.0962C34.3987 59.4189 34.1677 59.5532 34.0061 59.5648C33.344 59.6122 32.675 59.6364 32 59.6364C31.325 59.6364 30.656 59.6122 29.9939 59.5648C29.8323 59.5532 29.6013 59.4189 29.5229 59.0961L28.4988 54.8782C28.056 53.0545 26.6802 51.7358 25.0868 51.1608C24.4922 50.9462 23.9104 50.7047 23.3428 50.4377C21.8089 49.7161 19.9027 49.6756 18.2996 50.6523L14.5926 52.9109C14.309 53.0837 14.0507 53.0154 13.9281 52.9094C12.9153 52.0332 11.9668 51.0847 11.0906 50.0719C10.9846 49.9493 10.9163 49.691 11.0891 49.4074L13.3477 45.7004C14.3244 44.0973 14.2839 42.1911 13.5623 40.6572C13.2953 40.0896 13.0538 39.5078 12.8392 38.9132C12.2642 37.3198 10.9455 35.944 9.12181 35.5012L4.90385 34.4771C4.5811 34.3987 4.44682 34.1677 4.43524 34.0061C4.38779 33.344 4.36364 32.675 4.36364 32C4.36364 31.325 4.38779 30.656 4.43524 29.9939C4.44682 29.8323 4.5811 29.6013 4.90385 29.5229L9.12181 28.4988C10.9455 28.056 12.2642 26.6802 12.8392 25.0868C13.0538 24.4922 13.2953 23.9104 13.5623 23.3428C14.2839 21.8089 14.3244 19.9027 13.3477 18.2996L11.0891 14.5926C10.9163 14.3091 10.9846 14.0507 11.0906 13.9281C11.9668 12.9153 12.9153 11.9668 13.9281 11.0906C14.0507 10.9846 14.3091 10.9163 14.5926 11.0891L18.2996 13.3477C19.9027 14.3244 21.8089 14.2839 23.3428 13.5623C23.9104 13.2953 24.4922 13.0538 25.0868 12.8392C26.6802 12.2642 28.056 10.9455 28.4988 9.12181L29.5229 4.90385C29.6013 4.5811 29.8323 4.44682 29.9939 4.43524Z" fill="white"/>
</svg>
