<svg width="17" height="27" viewBox="0 0 17 27" fill="none" xmlns="http://www.w3.org/2000/svg">
<path d="M11.223 24.287C11.223 24.9254 10.9694 25.5377 10.518 25.9891C10.0666 26.4405 9.45436 26.6941 8.81596 26.6941C8.17756 26.6941 7.56531 26.4405 7.11389 25.9891C6.66248 25.5377 6.40887 24.9254 6.40887 24.287C6.40887 23.6486 6.66248 23.0364 7.11389 22.5849C7.56531 22.1335 8.17756 21.8799 8.81596 21.8799C9.45436 21.8799 10.0666 22.1335 10.518 22.5849C10.9694 23.0364 11.223 23.6486 11.223 24.287ZM8.90454 20.168C7.54694 20.168 6.4445 19.1503 6.4445 17.8957V15.2094C6.4445 13.5505 7.73084 12.1274 9.49668 11.826C10.9977 11.5709 12.08 10.3548 12.08 8.94138V7.74361C12.08 6.11257 10.6916 4.75594 8.97675 4.71743C8.13479 4.69211 7.31557 4.99289 6.69002 5.55702C6.07766 6.11257 5.74067 6.85684 5.74067 7.64925C5.74067 8.90286 4.63822 9.92154 3.28063 9.92154C1.92303 9.92154 0.809998 8.90286 0.809998 7.63963C0.809998 5.61382 1.67751 3.70934 3.23923 2.2959C4.81153 0.880536 6.88355 0.117973 9.07881 0.165151C13.4472 0.249881 17 3.65253 17 7.73398V8.94138C17 12.1736 14.7634 14.9966 11.5379 16.0153C11.488 16.0307 11.4443 16.0615 11.4131 16.1034C11.3819 16.1453 11.3649 16.1961 11.3646 16.2483V17.8871C11.3646 19.1503 10.2631 20.168 8.90454 20.168Z" fill="white"/>
</svg>
