<svg width="433" height="55" viewBox="0 0 433 55" fill="none" xmlns="http://www.w3.org/2000/svg">
<path d="M62.39 16.25C59.73 16.25 42.58 16.25 39.85 16.25C39.85 53.7 39.92 53 39.85 53C34.88 53 30.68 53 25.64 53V16.25C18.36 16.25 12.83 16.25 5.55 16.25L0.23 4C0.23 4 7.3 4.07 57 4.07L62.39 16.25ZM103.908 18.56L107.898 27.73V53.07H94.3882V30.81H77.8682V53H64.4282V9.67L60.4382 0.499996H77.8682V18.56H103.908ZM125.43 28.22V43.41H153.22V53H115.98L111.99 43.83V27.73L115.98 18.56H153.15L157.21 27.73V39.35H130.12V32.49H143.7V28.22H125.43ZM192.613 4C192.613 4 235.103 4 244.903 4L250.223 16.25C238.533 16.25 223.203 16.25 197.933 16.25L192.613 4ZM197.933 23.25C214.453 23.25 235.033 23.25 245.813 23.25C245.743 25.7 245.813 22.13 245.813 34.38H212.143V53C212.143 53 203.183 53 198.003 53C197.933 53 197.933 54.47 197.933 23.25ZM252.758 0.499996H266.198V11.63H252.758V0.499996ZM252.758 53.07V18.56H266.198V53.07H252.758ZM310.832 18.56L314.822 27.73V53.07H301.312V30.81H284.792V53.07H271.352V18.56H310.832ZM360.704 18.56L364.694 27.73V53.07H351.184V29.69H333.054V41.94H346.564V53.07H319.614V18.56H360.704ZM364.431 0.569999C369.541 0.569999 366.041 0.569999 381.931 0.569999V53H368.421V9.81L364.431 0.569999ZM432.164 32.28V53C430.204 53 388.904 53 386.944 53V43.41H418.724V39.14H386.944V18.56H432.094V28.15H400.384V32.28H432.164Z" fill="#00C5E2"/>
</svg>
