<svg width="291" height="54" viewBox="0 0 291 54" fill="none" xmlns="http://www.w3.org/2000/svg">
<path d="M62.39 16.25C59.73 16.25 42.58 16.25 39.85 16.25C39.85 53.7 39.92 53 39.85 53C34.88 53 30.68 53 25.64 53V16.25C18.36 16.25 12.83 16.25 5.55 16.25L0.23 4C0.23 4 7.3 4.07 57 4.07L62.39 16.25ZM98.3782 18.56V29.69H85.2882L77.8682 32.84V53H64.4282V18.56H77.8682V21.64L85.2882 18.56H98.3782ZM142.637 18.56L146.627 27.73V53.07H133.117V29.69H114.987V41.94H128.497V53.07H101.547V18.56H142.637ZM164.89 41.94H194.64V53.07H151.45V18.56H190.58L194.57 27.73V29.69H164.89V41.94ZM235.244 34.73L242.734 53H228.524L223.974 41.94H211.374V53H197.934V9.67L193.944 0.499996H211.374V29.83H223.064L228.244 18.56H242.734L235.244 34.73ZM290.866 32.28V53C288.906 53 247.606 53 245.646 53V43.41H277.426V39.14H245.646V18.56H290.796V28.15H259.086V32.28H290.866Z" fill="#00E0FF"/>
</svg>
