<svg width="864" height="70" viewBox="0 0 864 70" fill="none" xmlns="http://www.w3.org/2000/svg">
<path d="M78.7 7C81.71 7 90.32 7 93.47 7C74.01 58.38 74.92 56 74.85 56C72.47 56 58.68 56 55.53 56L46.92 33.32L38.31 56C37.47 56 19.83 56 18.99 56C18.92 56 19.83 58.31 0.37 7C5.83 7 10.17 7 15.14 7L28.58 42.49C40.06 12.32 39.5 13.72 39.57 13.72C44.61 13.72 48.81 13.72 54.34 13.72L65.19 42.49L78.7 7ZM135.012 21.56L139.002 30.73V56.07H125.492V33.81H108.972V56H95.5317V12.67L91.5417 3.5H108.972V21.56H135.012ZM184.883 21.56L188.873 30.73V56.07H175.363V32.69H157.233V44.94H170.743V56.07H143.793V21.56H184.883ZM207.654 32.69V43.75H228.654V56H194.144L194.214 30.38L190.364 21.56H194.214V3.5H207.654V21.56H226.064V32.69H207.654ZM227.911 0.909996H239.111C239.111 12.67 239.111 12.11 239.041 12.11L236.031 18.27H229.871L231.271 12.11H227.911V0.909996ZM288.063 35.28V56C286.103 56 244.803 56 242.843 56V46.41H274.623V42.14H242.843V21.56H287.993V31.15H256.283V35.28H288.063ZM326.997 3.5H340.437V14.63H326.997V3.5ZM326.997 56.07V21.56H340.437V56.07H326.997ZM385.07 21.56L389.06 30.73V56.07H375.55V33.81H359.03V56.07H345.59V21.56H385.07ZM427.758 3.5H441.198V14.63H427.758V3.5ZM427.758 56.07V21.56H441.198V56.07H427.758ZM461.472 32.69V43.75H482.472V56H447.962L448.032 30.38L444.182 21.56H448.032V3.5H461.472V21.56H479.882V32.69H461.472ZM553.777 14.63H535.577V21.63H549.717V32.69H535.577V56H522.137V30.8L518.147 21.63H522.137V12.74L526.127 3.57H553.777V14.63ZM597.308 30.73V46.83L593.248 56H556.078L552.088 46.83V30.73L556.078 21.56H593.248L597.308 30.73ZM583.798 44.94V32.69H565.528V44.94H583.798ZM635.683 21.56V32.69H622.593L615.173 35.84V56H601.733V21.56H615.173V24.64L622.593 21.56H635.683ZM701.108 21.56H714.618V69.93H679.898V60.34H701.108V56.07H672.758V21.56H686.198V44.94H701.108V21.56ZM764.241 30.73V46.83L760.181 56H723.011L719.021 46.83V30.73L723.011 21.56H760.181L764.241 30.73ZM750.731 44.94V32.69H732.461V44.94H750.731ZM811.786 21.56C811.786 57.68 811.786 56 811.716 56C811.716 56.07 813.186 56 772.306 56L768.316 46.83V21.56H781.756V43.75H798.276V21.56H811.786ZM859.558 7L863.618 16.94C863.618 23.45 863.618 29.75 863.618 36.82C857.598 36.82 851.368 36.82 845.208 36.82V42.07H832.468V25.55C832.468 25.55 848.428 25.55 849.618 25.55V18.41C829.038 18.41 843.668 18.41 822.878 18.41L817.908 7C817.908 7 847.938 7 859.558 7ZM845.208 56H832.468V46.41H845.208V56Z" fill="#00C5E2"/>
</svg>
