<svg width="215" height="215" viewBox="0 0 215 215" fill="none" xmlns="http://www.w3.org/2000/svg">
<path d="M53.715 0L43.4832 15.3471H15.3471C6.84481 15.3471 0 22.1919 0 30.6943V199.513C0 208.015 6.84481 214.86 15.3471 214.86H153.471C161.974 214.86 168.818 208.015 168.818 199.513V130.451L153.471 145.798V199.513H15.3471V30.6943H33.2524L23.0207 46.0414H145.798L135.566 30.6943H153.471V38.3678L167.465 24.3743C165.064 19.0432 159.717 15.3471 153.471 15.3471H125.335L115.103 0H53.715ZM61.3885 15.3471H107.43L115.103 30.6943H53.715L61.3885 15.3471Z" fill="#00E0FF"/>
<path fill-rule="evenodd" clip-rule="evenodd" d="M23.0208 115.104L84.4093 176.492L214.86 46.0414L199.513 23.0208L84.4093 138.124L46.0414 99.7564L23.0208 115.104Z" fill="#00E0FF"/>
</svg>
