<svg width="37" height="46" viewBox="0 0 37 46" fill="none" xmlns="http://www.w3.org/2000/svg">
<path fill-rule="evenodd" clip-rule="evenodd" d="M1.14583 4.58301C0.513007 4.58301 0 5.09602 0 5.72884V44.6872C0 45.32 0.513007 45.833 1.14583 45.833H35.5208C36.1537 45.833 36.6667 45.32 36.6667 44.6872C36.6667 44.0544 36.1537 43.5413 35.5208 43.5413H2.29167V5.72884C2.29167 5.09601 1.77866 4.58301 1.14583 4.58301Z" fill="#00ADD8"/>
<path fill-rule="evenodd" clip-rule="evenodd" d="M9.16671 1.14583C9.16671 0.513007 9.67971 0 10.3125 0C10.9454 0 11.4584 0.513007 11.4584 1.14583V4.58333H16.0417V1.14583C16.0417 0.513007 16.5547 0 17.1875 0C17.8204 0 18.3334 0.513007 18.3334 1.14583V4.58333H22.9167V1.14583C22.9167 0.513007 23.4297 0 24.0625 0C24.6954 0 25.2084 0.513007 25.2084 1.14583V4.58333H29.7917V1.14583C29.7917 0.513007 30.3047 0 30.9375 0C31.5704 0 32.0834 0.513007 32.0834 1.14583V4.58333H34.375C35.6407 4.58333 36.6667 5.60935 36.6667 6.875V38.9583C36.6667 40.224 35.6407 41.25 34.375 41.25H6.87504C5.60939 41.25 4.58337 40.224 4.58337 38.9583V6.875C4.58337 5.60935 5.60939 4.58333 6.87504 4.58333H9.16671V1.14583ZM30.9375 6.875H24.0625H17.1875H10.3125H6.87504V38.9583H34.375V6.875H30.9375Z" fill="#00ADD8"/>
</svg>
