<svg width="118" height="315" viewBox="0 0 118 315" fill="none" xmlns="http://www.w3.org/2000/svg">
<path d="M46.0934 178.36C55.7033 178.36 68.6655 178.36 84.98 178.36C101.183 178.36 112.189 178.36 118 178.36L118 314.295H0.669905L0.669905 191.602L27.8234 179.701L27.8234 280.27H46.0934L46.0934 178.36ZM90.5112 212.386H72.5765V280.27H90.5112V212.386ZM118 142.374V169.192H94.7016V142.374H118ZM30.0024 0.196488C30.3377 0.196488 35.2544 0.196488 44.7525 0.196488C54.2506 0.196488 64.0282 0.196488 74.085 0.196488C84.0301 0.196488 93.5842 0.196488 102.747 0.196488C111.798 0.196488 116.883 0.196488 118 0.196488V132.277H0.669905L0.669905 13.1028L30.0024 0.196488ZM88.6675 34.0546H30.0024V98.4185H88.6675V34.0546Z" fill="white"/>
</svg>
