<svg width="154" height="118" viewBox="0 0 154 118" fill="none" xmlns="http://www.w3.org/2000/svg">
<path d="M119.006 0.669905C119.006 0.669905 119.062 0.669905 119.174 0.669905H119.341H119.509H119.677H119.844H120.012H120.18H120.347H120.515H120.682H120.85H121.018H121.185H121.353H121.52H121.688H121.856H122.023H122.191H122.359H122.526H122.694H122.861H123.029H123.197H123.364H123.532H123.699H123.867H124.035H124.202H124.37H124.538H124.705H124.873H125.04H125.208H125.376H125.543H125.878H126.046H126.214H126.381H126.549H126.717H126.884H127.052H127.219H127.387H127.555H127.89H128.057H128.225H128.393H128.56H128.728H129.063H129.231H129.398H129.566H129.734H130.069H130.236H130.404H130.572H130.907H131.074H131.242H131.41H131.745H131.913H132.08H132.415H132.583H132.751H133.086H133.253H133.421H133.756H133.924H134.092H134.427H134.594H134.762H135.097H135.265H135.432H135.768H135.935H136.271H136.438H136.606H136.941H137.109H137.444H137.611H137.947H138.114H138.45H138.617H138.785H139.12H139.288H139.623H139.79H140.126H140.293H140.628H140.796H141.131H141.299H141.634H141.802H142.137H142.305H142.64H142.807H143.143H143.478H143.646H143.981H144.148H144.484H144.651H144.986H145.154H145.489H145.657H145.992H146.327H146.495H146.83H146.998H147.333H147.501H147.836H148.171H148.339H148.674H148.842H149.177H149.344H149.68H149.847H150.183H150.518H150.685H151.021H151.188H151.523H151.691H151.859H152.194H152.362H152.529H152.864H153.032C153.032 12.6264 153.032 31.6786 153.032 57.8264C153.032 83.9743 153.032 104.032 153.032 118H109.62L46.932 44.4173V118H13.0739C13.0739 116.1 13.0739 86.7678 13.0739 30.0024L0.167614 0.669905H52.4633L119.006 78.443V0.669905Z" fill="#00E0FF"/>
</svg>
